<svg version="1.2" xmlns="http://www.w3.org/2000/svg" viewBox="0 0 187 230" width="230" height="283">
	<title>bcdc2bd0-de4b-47d4-8253-c92aff076c54</title>
	<style>
		.s0 { fill: #9c938d } 
		.s1 { fill: #706863 } 
		.s2 { fill: #584f4a } 
	</style>
	<g id="Background">
		<path id="Path 0" fill-rule="evenodd" class="s0" d="m169.7 56c0.2 1.4 0.2 3.9 0 5.5-0.2 1.6-0.4 0.5-0.4-2.5 0-3 0.2-4.4 0.4-3zm-80 10.5c0.2 1.1 0.2 2.7 0 3.5-0.3 0.8-0.5-0.1-0.5-2 0-1.9 0.2-2.6 0.5-1.5zm-72 22c0.2 3.8 0.2 10.6 0 15-0.1 4.4-0.3 1.3-0.3-7 0-8.3 0.2-11.8 0.3-8zm116.3 11.5c1.1 0 4.4 2.2 7.3 4.9 2.8 2.8 10.3 10 27.7 27.1v82.5l-75.8 0.2c-58 0.2-75.9-0.1-76.4-1-0.4-0.7-0.8-9.6-0.8-20 0-10.3 0.3-19.4 0.8-20.4 0.4-0.9 4.3-4.6 8.7-8.3 4.4-3.7 11-9 14.8-11.8 3.7-2.9 7.3-5.2 8-5.2 0.6 0 5.3 3.8 10.2 8.5 5 4.6 9.2 8.4 9.5 8.4 0.3 0 1.9 1.2 3.5 2.7 1.7 1.5 4.5 3.3 6.3 4.1 1.7 0.7 4.7 1.3 6.5 1.3 1.7 0 4.9-0.5 7-1 2-0.6 4.2-1.9 4.7-3 0.6-1.1 1-9.5 1-18.8-0.1-9.2-0.1-17.3 0-18 0-0.6 1.3-2.4 2.8-4 1.6-1.5 4.6-4.3 6.8-6.2 2.1-2 5.9-5.1 8.4-7 2.5-1.9 4.7-3.7 5-4 0.3-0.3 2.5-2.1 5-4 2.5-1.9 5.1-4.3 5.8-5.2 0.7-1 2.2-1.8 3.2-1.8zm-13.4 3c0.2 0 0.4 0.1 0.4 0.2 0.1 0.2-1 1.2-4.5 4.3l1.9-2.3c1-1.2 2.1-2.2 2.2-2.2zm30.8 3c0.5 0 1.7 0.9 2.5 2 0.9 1.2 1.4 2.1 1.1 2.1-0.3 0-1.4-1-2.5-2.1-1.1-1.1-1.6-2.1-1.1-2zm-60.7 13c0.2 1.4 0.2 4.1 0 6-0.2 1.9-0.4 0.8-0.4-2.5 0-3.3 0.2-4.9 0.4-3.5zm72.7-1c0.5 0 1.7 0.9 2.5 2 0.9 1.2 1.4 2.1 1.1 2.1-0.3 0-1.4-1-2.5-2.1-1.1-1.1-1.6-2.1-1.1-2zm-105.7 31.1c1.2 0.8 2 1.6 1.7 1.9-0.2 0.3-1.2-0.3-2.2-1.4-1.6-1.8-1.6-1.8 0.5-0.5zm33 4.4c0.2 1.1 0.2 3.1 0 4.5-0.2 1.4-0.4 0.5-0.4-2 0-2.5 0.2-3.6 0.4-2.5zm-20 6.6c1.2 0.8 2 1.6 1.7 1.9-0.2 0.3-1.2-0.3-2.2-1.4-1.6-1.8-1.6-1.8 0.5-0.5z"/>
		<path id="Path 1" class="s1" d="m101.1 18c0.4 0 0.5 0.4 0.3 1-0.2 0.6-1.2 1-2.1 1-1.5 0-1.6-0.2-0.3-1 0.8-0.5 1.8-1 2.1-1zm-50.6 27.4c4.4 0.2 9.8 0.8 12 1.4 2.2 0.6 9.1 2.3 26.5 6.2l0.2 3.3c0.1 1.7 0.3 5.9 0.5 9.2 0.2 3.3 0.4 26.3 0.5 51 0.2 24.8 0 46.1-0.3 47.5-0.4 1.9-1.4 2.7-4 3.2-2.1 0.4-4.6 0.1-6.6-0.8-1.8-0.8-4.1-2.2-5-3.2-1-0.9-3.4-2.8-5.3-4.1-1.9-1.4-6.2-5.1-9.5-8.4-3.3-3.2-7.3-6.6-9-7.4-2.4-1.2-3.6-1.2-6-0.3-1.6 0.6-4.8 2.7-7 4.6-2.2 1.9-7.5 6.3-11.7 9.9-4.7 3.9-8.3 6.2-8.9 5.8-0.8-0.5-1-2.3-0.5-5.3 0.3-2.5 0.9-25.4 1.2-51 0.3-25.6 0.7-47.9 0.8-49.5 0.1-1.6 0.5-4 0.9-5.2 0.5-1.6 1.9-2.6 4.5-3.2 2-0.5 6.2-1.4 9.2-2 3-0.6 6.4-1.3 7.5-1.5 1.1-0.3 5.6-0.3 10-0.2z"/>
		<path id="Path 2" class="s2" d="m128.5 12.4c3.3 0.3 12.3 1.6 20 3 7.7 1.4 15.5 2.8 20.5 3.6v51c0 28-0.3 51.2-0.8 51.5-0.4 0.2-6.8-5.4-14.2-12.6-9.2-8.8-14.6-13.3-17-14-3.2-1-3.9-0.8-8.5 2.5-2.8 1.9-7.5 5.5-10.5 8-3 2.5-8.6 7.4-12.4 10.8-3.7 3.5-7.2 6.4-7.7 6.5-0.5 0.2-0.9-21.9-0.9-51.2 0-48.9 0.1-51.5 1.8-51.5 1 0 2.2-0.4 2.7-0.9 0.6-0.5 4.8-1.9 9.5-3.1 4.7-1.3 9.2-2.7 10-3.2 0.8-0.5 4.2-0.7 7.5-0.4z"/>
	</g>
</svg>